<svg width="366" height="366" viewBox="0 0 366 366" fill="none" xmlns="http://www.w3.org/2000/svg">
<rect width="366" height="366" rx="50" fill="#603FE6"/>
<path d="M181.275 121.25C215.777 121.25 243.75 148.672 243.75 182.5C243.75 216.328 215.777 243.75 181.275 243.75C165.276 243.75 150.681 237.852 139.625 228.156" stroke="#D3FFFC" stroke-width="10" stroke-linecap="round" stroke-linejoin="round"/>
<path d="M182.5 60C250.157 60 305 114.843 305 182.5C305 250.157 250.157 305 182.5 305C150.643 305.043 120.031 292.633 97.1972 270.418C85.4114 259.012 76.0437 245.349 69.6529 230.244C63.2621 215.139 59.9793 198.901 60.0001 182.5C59.9585 150.919 72.1559 120.551 94.0306 97.7729" stroke="#D3FFFC" stroke-width="10" stroke-linecap="round" stroke-linejoin="round"/>
<path d="M94.0306 97.7728L182.5 182.5L97.1973 270.418" stroke="#D3FFFC" stroke-width="10" stroke-linecap="round" stroke-linejoin="round"/>
</svg>
