<svg width="366" height="380" viewBox="0 0 366 380" fill="none" xmlns="http://www.w3.org/2000/svg">
<rect y="7" width="366" height="366" rx="50" fill="#D48EF5"/>
<path d="M183.062 304.953C170.594 304.953 159.156 302.656 148.75 298.062C138.438 293.375 130.234 286.719 124.141 278.094C118.047 269.469 115.141 259.156 115.422 247.156L115.703 246.453L155.078 244.484C155.078 253.578 157.656 260.703 162.812 265.859C167.969 270.922 174.719 273.453 183.062 273.453C192.625 273.453 199.703 270.031 204.297 263.188C208.891 256.344 211.188 247.484 211.188 236.609C211.188 224.797 208.75 215.328 203.875 208.203C199 201.078 191.734 197.516 182.078 197.516C174.297 197.516 168.297 198.969 164.078 201.875C159.953 204.781 157 208.719 155.219 213.688L118.938 211.297L130.75 97.25H248.594V143.938H223.281L219.625 130.156H164.5L158.734 177.406C162.578 174.594 167.172 172.297 172.516 170.516C177.859 168.641 183.766 167.656 190.234 167.562C209.922 167.281 225.156 173.234 235.938 185.422C246.719 197.609 252.109 214.578 252.109 236.328C252.109 249.453 249.438 261.219 244.094 271.625C238.844 281.938 231.062 290.094 220.75 296.094C210.531 302 197.969 304.953 183.062 304.953Z" fill="black"/>
</svg>
