<svg width="366" height="380" viewBox="0 0 366 380" fill="none" xmlns="http://www.w3.org/2000/svg">
<rect y="7" width="366" height="366" rx="50" fill="#D48EF5"/>
<path d="M187.922 304.953C173.578 304.953 160.875 301.672 149.812 295.109C138.844 288.453 130.266 278.938 124.078 266.562C117.891 254.188 114.797 239.328 114.797 221.984V185.984C114.797 166.672 118.266 150.172 125.203 136.484C132.234 122.797 141.938 112.344 154.312 105.125C166.688 97.9063 180.891 94.2969 196.922 94.2969C204.609 94.2969 211.688 95.0469 218.156 96.5469C224.719 97.9531 231.281 100.062 237.844 102.875L230.672 132.828C225.609 131.047 220.312 129.547 214.781 128.328C209.344 127.109 203.766 126.5 198.047 126.5C170.766 126.5 156.984 144.078 156.703 179.234L157.125 179.938C161.719 175.156 167.531 171.406 174.562 168.688C181.594 165.969 189.422 164.609 198.047 164.609C210.328 164.609 220.875 167.609 229.688 173.609C238.5 179.516 245.25 187.672 249.938 198.078C254.625 208.391 256.969 220.25 256.969 233.656C256.969 247.438 254.016 259.719 248.109 270.5C242.297 281.188 234.188 289.625 223.781 295.812C213.469 301.906 201.516 304.953 187.922 304.953ZM187.078 273.453C195.891 273.453 202.875 269.562 208.031 261.781C213.281 254 215.906 244.438 215.906 233.094C215.906 222.125 213.234 213.172 207.891 206.234C202.547 199.203 194.906 195.688 184.969 195.688C171.75 195.688 162 200.234 155.719 209.328V222.969C155.719 239.188 158.578 251.656 164.297 260.375C170.109 269.094 177.703 273.453 187.078 273.453Z" fill="black"/>
</svg>
