<svg width="366" height="380" viewBox="0 0 366 380" fill="none" xmlns="http://www.w3.org/2000/svg">
<rect y="7" width="366" height="366" rx="50" fill="#D48EF5"/>
<path d="M181.906 304.953C168.875 304.953 157.016 302.656 146.328 298.062C135.641 293.469 127.156 286.812 120.875 278.094C114.688 269.281 111.734 258.641 112.016 246.172L112.297 245.328H152.094C152.094 253.484 154.766 260.234 160.109 265.578C165.453 270.828 172.719 273.453 181.906 273.453C191.375 273.453 198.828 270.828 204.266 265.578C209.797 260.234 212.562 252.828 212.562 243.359C212.562 233.797 209.844 226.344 204.406 221C198.969 215.656 190.766 212.984 179.797 212.984H157.578V182.188H180.641C190.391 182.188 197.609 179.656 202.297 174.594C206.984 169.531 209.328 162.688 209.328 154.062C209.328 145.344 206.984 138.5 202.297 133.531C197.609 128.469 190.812 125.938 181.906 125.938C173.844 125.938 167.281 128.281 162.219 132.969C157.156 137.656 154.625 143.797 154.625 151.391H114.828L114.547 150.547C114.172 139.672 116.797 130.016 122.422 121.578C128.141 113.047 136.109 106.391 146.328 101.609C156.547 96.7344 168.312 94.2969 181.625 94.2969C202.344 94.2969 218.984 99.3594 231.547 109.484C244.109 119.516 250.391 133.766 250.391 152.234C250.391 161.797 247.719 170.422 242.375 178.109C237.125 185.797 229.25 192.078 218.75 196.953C230.094 200.984 238.719 207.172 244.625 215.516C250.625 223.859 253.625 233.562 253.625 244.625C253.625 257.094 250.531 267.875 244.344 276.969C238.156 285.969 229.625 292.906 218.75 297.781C207.969 302.562 195.688 304.953 181.906 304.953Z" fill="black"/>
</svg>
