<svg width="366" height="380" viewBox="0 0 366 380" fill="none" xmlns="http://www.w3.org/2000/svg">
<rect y="7" width="366" height="366" rx="50" fill="#D48EF5"/>
<path d="M113.828 302V275.141L180.203 203.844C190.234 192.5 197.172 183.219 201.016 176C204.859 168.781 206.781 161.703 206.781 154.766C206.781 146.797 204.484 140.047 199.891 134.516C195.297 128.984 188.641 126.219 179.922 126.219C170.453 126.219 163.281 129.312 158.406 135.5C153.531 141.594 151.094 150.031 151.094 160.812H111.156L110.875 159.969C110.594 147.688 113.219 136.578 118.75 126.641C124.375 116.703 132.438 108.828 142.938 103.016C153.438 97.2031 165.906 94.2969 180.344 94.2969C194.312 94.2969 206.359 96.8281 216.484 101.891C226.609 106.953 234.391 113.984 239.828 122.984C245.266 131.891 247.984 142.25 247.984 154.062C247.984 162.125 246.531 169.766 243.625 176.984C240.719 184.203 236.172 191.797 229.984 199.766C223.797 207.734 215.828 216.875 206.078 227.188L166.281 269.938L166.562 270.641H219.578L221.688 251.094H253.469V302H113.828Z" fill="black"/>
</svg>
